<svg xmlns="http://www.w3.org/2000/svg" version="1.1" xmlns:xlink="http://www.w3.org/1999/xlink" width="512" height="512" x="0" y="0" viewBox="0 0 682.667 682.667" style="enable-background:new 0 0 512 512" xml:space="preserve" class=""><g><defs><clipPath id="a" clipPathUnits="userSpaceOnUse"><path d="M0 512h512V0H0Z" fill="#ffba43" opacity="1" data-original="#000000"></path></clipPath></defs><g clip-path="url(#a)" transform="matrix(1.33333 0 0 -1.33333 0 682.667)"><path d="M0 0c-15.307 15.902-36.793 25.822-60.49 25.822-24.35 0-46.375-10.486-61.768-27.154m-19.588-216.682h159.11" style="stroke-width:15.024;stroke-linecap:round;stroke-linejoin:round;stroke-miterlimit:10;stroke-dasharray:none;stroke-opacity:1" transform="translate(316.406 225.514)" fill="none" stroke="#ffba43" stroke-width="15.024" stroke-linecap="round" stroke-linejoin="round" stroke-miterlimit="10" stroke-dasharray="none" stroke-opacity="" data-original="#000000" opacity="1" class=""></path><path d="M0 0c-15.109 4.055-28.262 13.465-37.617 26.25m105.506-4.281C58.875 11.367 47.055 3.6 33.674 0m-71.291 118.801c12.699 17.318 32.373 28.459 54.455 28.459 20.211 0 38.381-9.326 51.051-24.207" style="stroke-width:15.024;stroke-linecap:round;stroke-linejoin:round;stroke-miterlimit:10;stroke-dasharray:none;stroke-opacity:1" transform="translate(239.078 56.908)" fill="none" stroke="#ffba43" stroke-width="15.024" stroke-linecap="round" stroke-linejoin="round" stroke-miterlimit="10" stroke-dasharray="none" stroke-opacity="" data-original="#000000" opacity="1" class=""></path><path d="M0 0c-7.482-47.057-46.176-43.398-46.176-94.025v-156.19c0-14.683 12.02-26.703 26.703-26.703h124.186c14.683 0 26.701 12.02 26.701 26.703v156.19c0 56.068-47.394 45.552-47.394 110.947v53.404H1.248V33.93" style="stroke-width:15.024;stroke-linecap:round;stroke-linejoin:round;stroke-miterlimit:10;stroke-dasharray:none;stroke-opacity:1" transform="translate(353.143 284.418)" fill="none" stroke="#ffba43" stroke-width="15.024" stroke-linecap="round" stroke-linejoin="round" stroke-miterlimit="10" stroke-dasharray="none" stroke-opacity="" data-original="#000000" opacity="1" class=""></path><path d="M354.391 354.744h82.771v47.084h-82.771z" style="stroke-width:15.024;stroke-linecap:round;stroke-linejoin:round;stroke-miterlimit:10;stroke-dasharray:none;stroke-opacity:1" fill="none" stroke="#ffba43" stroke-width="15.024" stroke-linecap="round" stroke-linejoin="round" stroke-miterlimit="10" stroke-dasharray="none" stroke-opacity="" data-original="#000000" opacity="1" class=""></path><path d="M0 0h-44.674c-9.07 0-16.498-7.398-16.498-16.471 0-9.466 8.76-13.945 16.498-16.498L4.82-49.238v-53.434h48.784v41.641h68.144v19.361L80.533 0H33.959" style="stroke-width:15.024;stroke-linecap:round;stroke-linejoin:round;stroke-miterlimit:10;stroke-dasharray:none;stroke-opacity:1" transform="translate(366.55 504.5)" fill="none" stroke="#ffba43" stroke-width="15.024" stroke-linecap="round" stroke-linejoin="round" stroke-miterlimit="10" stroke-dasharray="none" stroke-opacity="" data-original="#000000" opacity="1" class=""></path><path d="M0 0s1.305-56.041-40.535-84.672" style="stroke-width:15.024;stroke-linecap:round;stroke-linejoin:round;stroke-miterlimit:10;stroke-dasharray:none;stroke-opacity:1" transform="translate(337.184 466.516)" fill="none" stroke="#ffba43" stroke-width="15.024" stroke-linecap="round" stroke-linejoin="round" stroke-miterlimit="10" stroke-dasharray="none" stroke-opacity="" data-original="#000000" opacity="1" class=""></path><path d="M0 0h123.902c14.825 0 26.928 12.133 26.928 26.93v171.326c0 14.824-12.103 26.957-26.928 26.957H0c-14.826 0-26.93-12.133-26.93-26.957V26.93C-26.93 12.133-14.826 0 0 0Z" style="stroke-width:15.024;stroke-linecap:round;stroke-linejoin:round;stroke-miterlimit:10;stroke-dasharray:none;stroke-opacity:1" transform="translate(50.63 7.5)" fill="none" stroke="#ffba43" stroke-width="15.024" stroke-linecap="round" stroke-linejoin="round" stroke-miterlimit="10" stroke-dasharray="none" stroke-opacity="" data-original="#000000" opacity="1" class=""></path><path d="M0 0h-71.887v99.014h177.76V0H33.986" style="stroke-width:15.024;stroke-linecap:round;stroke-linejoin:round;stroke-miterlimit:10;stroke-dasharray:none;stroke-opacity:1" transform="translate(95.588 70.6)" fill="none" stroke="#ffba43" stroke-width="15.024" stroke-linecap="round" stroke-linejoin="round" stroke-miterlimit="10" stroke-dasharray="none" stroke-opacity="" data-original="#000000" opacity="1" class=""></path><path d="M60.75 232.713h103.662v31.975H60.75Z" style="stroke-width:15.024;stroke-linecap:round;stroke-linejoin:round;stroke-miterlimit:10;stroke-dasharray:none;stroke-opacity:1" fill="none" stroke="#ffba43" stroke-width="15.024" stroke-linecap="round" stroke-linejoin="round" stroke-miterlimit="10" stroke-dasharray="none" stroke-opacity="" data-original="#000000" opacity="1" class=""></path><path d="M0 0v43.512C0 72-23.328 95.33-51.846 95.33c-28.488 0-51.816-23.33-51.816-51.818V0Z" style="stroke-width:15.024;stroke-linecap:round;stroke-linejoin:round;stroke-miterlimit:10;stroke-dasharray:none;stroke-opacity:1" transform="translate(164.412 264.688)" fill="none" stroke="#ffba43" stroke-width="15.024" stroke-linecap="round" stroke-linejoin="round" stroke-miterlimit="10" stroke-dasharray="none" stroke-opacity="" data-original="#000000" opacity="1" class=""></path><path d="M95.191 264.687h34.752v43.285H95.191Z" style="stroke-width:15.024;stroke-linecap:round;stroke-linejoin:round;stroke-miterlimit:10;stroke-dasharray:none;stroke-opacity:1" fill="none" stroke="#ffba43" stroke-width="15.024" stroke-linecap="round" stroke-linejoin="round" stroke-miterlimit="10" stroke-dasharray="none" stroke-opacity="" data-original="#000000" opacity="1" class=""></path><path d="M0 0v49.322h55.221V0" style="stroke-width:15.024;stroke-linecap:round;stroke-linejoin:round;stroke-miterlimit:10;stroke-dasharray:none;stroke-opacity:1" transform="translate(228.305 246.66)" fill="none" stroke="#ffba43" stroke-width="15.024" stroke-linecap="round" stroke-linejoin="round" stroke-miterlimit="10" stroke-dasharray="none" stroke-opacity="" data-original="#000000" opacity="1" class=""></path><path d="M0 0v44.447" style="stroke-width:15.024;stroke-linecap:round;stroke-linejoin:round;stroke-miterlimit:10;stroke-dasharray:none;stroke-opacity:1" transform="translate(255.916 295.982)" fill="none" stroke="#ffba43" stroke-width="15.024" stroke-linecap="round" stroke-linejoin="round" stroke-miterlimit="10" stroke-dasharray="none" stroke-opacity="" data-original="#000000" opacity="1" class=""></path><path d="M0 0h-44.986c-22.508 0-32.485-20.637-32.485-20.637" style="stroke-width:15.024;stroke-linecap:round;stroke-linejoin:round;stroke-miterlimit:10;stroke-dasharray:none;stroke-opacity:1" transform="translate(278.678 340.43)" fill="none" stroke="#ffba43" stroke-width="15.024" stroke-linecap="round" stroke-linejoin="round" stroke-miterlimit="10" stroke-dasharray="none" stroke-opacity="" data-original="#000000" opacity="1" class=""></path><path d="M0 0h42.35c10.261 17.576 27.24 29.084 46.461 29.084C108 29.084 124.98 17.576 135.24 0h42.35v-78.717h-42.35c-10.26-17.576-27.24-29.084-46.429-29.084-19.221 0-36.2 11.508-46.461 29.084H0Z" style="stroke-width:15.024;stroke-linecap:round;stroke-linejoin:round;stroke-miterlimit:10;stroke-dasharray:none;stroke-opacity:1" transform="translate(306.967 165.248)" fill="none" stroke="#ffba43" stroke-width="15.024" stroke-linecap="round" stroke-linejoin="round" stroke-miterlimit="10" stroke-dasharray="none" stroke-opacity="" data-original="#000000" opacity="1" class=""></path><path d="M0 0h32.031M0 29.111h32.031M0-29.141h32.031" style="stroke-width:15.024;stroke-linecap:round;stroke-linejoin:round;stroke-miterlimit:10;stroke-dasharray:none;stroke-opacity:1" transform="translate(379.762 125.904)" fill="none" stroke="#ffba43" stroke-width="15.024" stroke-linecap="round" stroke-linejoin="round" stroke-miterlimit="10" stroke-dasharray="none" stroke-opacity="" data-original="#000000" opacity="1" class=""></path><path d="M0 0h52.725M0-29.111h52.725" style="stroke-width:15.024;stroke-linecap:round;stroke-linejoin:round;stroke-miterlimit:10;stroke-dasharray:none;stroke-opacity:1" transform="translate(119.115 134.662)" fill="none" stroke="#ffba43" stroke-width="15.024" stroke-linecap="round" stroke-linejoin="round" stroke-miterlimit="10" stroke-dasharray="none" stroke-opacity="" data-original="#000000" opacity="1" class=""></path><path d="M0 0c11.48 0 20.863 9.383 20.863 20.863 0 11.508-9.383 20.891-20.863 20.891-11.51 0-20.893-9.383-20.893-20.891C-20.893 9.383-11.51 0 0 0Z" style="stroke-width:15.024;stroke-linecap:round;stroke-linejoin:round;stroke-miterlimit:10;stroke-dasharray:none;stroke-opacity:1" transform="translate(73.223 99.23)" fill="none" stroke="#ffba43" stroke-width="15.024" stroke-linecap="round" stroke-linejoin="round" stroke-miterlimit="10" stroke-dasharray="none" stroke-opacity="" data-original="#000000" opacity="1" class=""></path></g></g></svg>