<svg width="40" height="40" viewBox="0 0 40 40" fill="none" xmlns="http://www.w3.org/2000/svg">
<g clip-path="url(#clip0_4_999)">
<path d="M39.9439 22.2644L39.9437 22.2639L32.3915 3.30111C32.3534 3.20529 32.2968 3.11793 32.2249 3.04399C32.153 2.97006 32.0673 2.91101 31.9726 2.87021C31.8778 2.82942 31.776 2.80768 31.6729 2.80623C31.5698 2.80478 31.4674 2.82366 31.3716 2.86178L31.3707 2.86218L0.732602 15.062C0.607667 15.116 0.499288 15.2021 0.418517 15.3117C0.293479 15.3766 0.188468 15.4744 0.114741 15.5944C0.0410141 15.7145 0.00134997 15.8524 0 15.9933L0 36.4087C0 36.617 0.0827273 36.8167 0.229983 36.964C0.377238 37.1112 0.57696 37.1939 0.785211 37.1939H33.7641C33.9723 37.1939 34.172 37.1112 34.3193 36.964C34.4665 36.8167 34.5493 36.617 34.5493 36.4087V25.2587L39.5055 23.2847C39.6013 23.2465 39.6886 23.1898 39.7625 23.1179C39.8363 23.0459 39.8953 22.9601 39.936 22.8654C39.9767 22.7706 39.9983 22.6688 39.9997 22.5657C40.001 22.4626 39.9821 22.3602 39.9439 22.2644ZM32.9788 35.6235H1.57042V16.7785H32.9788V35.6235ZM13.1012 15.212L26.2488 9.97304C26.8295 10.5834 27.5277 11.07 28.3013 11.4036C29.0749 11.7371 29.908 11.9108 30.7504 11.9141L32.0617 15.212H13.1012ZM34.5493 23.5721V15.9933C34.5493 15.785 34.4665 15.5853 34.3193 15.438C34.172 15.2908 33.9723 15.208 33.7641 15.208H33.7515L32.0876 11.0292C32.0692 10.9943 32.0477 10.9612 32.0232 10.9302C31.9825 10.7473 31.877 10.5854 31.7262 10.4743C31.5754 10.3631 31.3894 10.3103 31.2027 10.3256C30.4231 10.3967 29.6381 10.2717 28.919 9.96206C28.2 9.6524 27.5699 9.16789 27.0858 8.5526C26.9675 8.40655 26.8003 8.30828 26.6151 8.27595C26.4299 8.24362 26.2393 8.27941 26.0784 8.37671C26.0411 8.38115 26.0041 8.38797 25.9677 8.39713L9.91642 14.7887C9.82028 14.8264 9.73262 14.8829 9.6586 14.9549C9.58457 15.0269 9.52567 15.113 9.48534 15.208H4.61076L31.2231 4.61163L38.195 22.1179L34.5493 23.5721Z" fill="#108042"/>
<path d="M3.70148 30.3226C4.45181 30.5443 5.13482 30.9501 5.68842 31.503C6.24202 32.056 6.64866 32.7385 6.87137 33.4885C6.91972 33.6505 7.01903 33.7925 7.15455 33.8935C7.29008 33.9945 7.45458 34.0491 7.62361 34.0492C7.66435 34.0466 7.70481 34.0405 7.74453 34.0311C7.77976 34.0411 7.81579 34.0485 7.8521 34.0531H26.6972C26.7295 34.0489 26.7615 34.0423 26.793 34.0335C26.9813 34.0793 27.1802 34.0484 27.3458 33.9476C27.5115 33.8468 27.6303 33.6844 27.6761 33.496L27.6771 33.4917C27.8992 32.7409 28.3056 32.0575 28.8592 31.5039C29.4129 30.9503 30.0962 30.5439 30.847 30.3218C31.0259 30.267 31.179 30.1495 31.278 29.9907C31.377 29.832 31.4152 29.6428 31.3857 29.458C31.3961 29.4199 31.4037 29.3811 31.4084 29.3418V23.0601C31.4038 23.0208 31.3959 22.9819 31.3849 22.9439C31.4147 22.7592 31.3765 22.5699 31.2775 22.4111C31.1784 22.2523 31.0252 22.1347 30.8462 22.0802C30.0954 21.8581 29.4122 21.4517 28.8588 20.8979C28.3053 20.344 27.8994 19.6605 27.6779 18.9095C27.6229 18.7295 27.5043 18.5755 27.3443 18.4764C27.1842 18.3773 26.9936 18.3398 26.8079 18.3709C26.7716 18.3608 26.7346 18.3534 26.6972 18.3489H7.8521C7.81253 18.3536 7.77341 18.3615 7.73511 18.3724C7.55039 18.343 7.36126 18.3813 7.20254 18.4803C7.04383 18.5793 6.92622 18.7323 6.87137 18.9111C6.64913 19.6617 6.24269 20.3449 5.68906 20.8984C5.13543 21.4519 4.45218 21.8581 3.70148 22.0802C3.52257 22.1349 3.36949 22.2525 3.27049 22.4112C3.17149 22.57 3.13325 22.7592 3.16282 22.9439C3.15261 22.9821 3.14526 23.0209 3.14084 23.0601V29.3418C3.14535 29.3787 3.15271 29.4152 3.16282 29.451C3.13169 29.6369 3.16915 29.8277 3.26824 29.9881C3.36732 30.1484 3.52129 30.2673 3.70148 30.3226ZM4.71126 23.3789C5.49153 23.0655 6.2003 22.5975 6.79487 22.0029C7.38944 21.4083 7.85751 20.6996 8.1709 19.9193H26.3776C26.6911 20.6996 27.1594 21.4084 27.7541 22.0029C28.3488 22.5975 29.0576 23.0656 29.838 23.3789V29.023C29.0579 29.3368 28.3494 29.805 27.7548 30.3995C27.1603 30.994 26.6921 31.7026 26.3784 32.4827H8.1709C7.85715 31.7026 7.38895 30.994 6.79443 30.3995C6.1999 29.805 5.49132 29.3368 4.71126 29.023V23.3789Z" fill="#108042"/>
<path d="M17.2746 30.9123C19.8766 30.9123 21.9859 28.803 21.9859 26.201C21.9859 23.599 19.8766 21.4897 17.2746 21.4897C14.6726 21.4897 12.5634 23.599 12.5634 26.201C12.5659 28.8019 14.6737 30.9097 17.2746 30.9123ZM17.2746 23.0602C19.0093 23.0602 20.4155 24.4664 20.4155 26.201C20.4155 27.9356 19.0093 29.3419 17.2746 29.3419C15.54 29.3419 14.1338 27.9356 14.1338 26.201C14.1338 24.4664 15.54 23.0602 17.2746 23.0602ZM8.63732 27.3788C9.28777 27.3788 9.81513 26.8515 9.81513 26.201C9.81513 25.5506 9.28777 25.0232 8.63732 25.0232C7.98687 25.0232 7.4595 25.5506 7.4595 26.201C7.4595 26.8516 7.98687 27.3788 8.63732 27.3788ZM8.63732 25.8084C8.74144 25.8084 8.84131 25.8498 8.91493 25.9234C8.98856 25.997 9.02992 26.0969 9.02992 26.201C9.02992 26.3051 8.98856 26.405 8.91493 26.4786C8.84131 26.5523 8.74144 26.5936 8.63732 26.5936C8.53319 26.5936 8.43333 26.5523 8.3597 26.4786C8.28608 26.405 8.24471 26.3051 8.24471 26.201C8.24471 26.0969 8.28608 25.997 8.3597 25.9234C8.43333 25.8498 8.53319 25.8084 8.63732 25.8084ZM25.912 27.3788C26.5624 27.3788 27.0898 26.8515 27.0898 26.201C27.0898 25.5506 26.5624 25.0232 25.912 25.0232C25.2615 25.0232 24.7341 25.5506 24.7341 26.201C24.7341 26.8516 25.2615 27.3788 25.912 27.3788ZM25.912 25.8084C26.0161 25.8084 26.1159 25.8498 26.1896 25.9234C26.2632 25.997 26.3046 26.0969 26.3046 26.201C26.3046 26.3051 26.2632 26.405 26.1896 26.4786C26.1159 26.5523 26.0161 26.5936 25.912 26.5936C25.8078 26.5936 25.708 26.5523 25.6343 26.4786C25.5607 26.405 25.5193 26.3051 25.5193 26.201C25.5193 26.0969 25.5607 25.997 25.6343 25.9234C25.708 25.8498 25.8078 25.8084 25.912 25.8084Z" fill="#108042"/>
</g>
<defs>
<clipPath id="clip0_4_999">
<rect width="40" height="40" fill="white"/>
</clipPath>
</defs>
</svg>
