<svg xmlns="http://www.w3.org/2000/svg" version="1.1" xmlns:xlink="http://www.w3.org/1999/xlink" width="512" height="512" x="0" y="0" viewBox="0 0 74.34 74.34" style="enable-background:new 0 0 512 512" xml:space="preserve" class=""><g><path d="M29.52 53.303h-8.945a1 1 0 0 0-1 1v8.104a1 1 0 0 0 .466.845l4.473 2.826a1 1 0 0 0 1.068 0l4.473-2.826a1 1 0 0 0 .466-.845v-8.104c-.001-.552-.449-1-1.001-1zm-1 8.553-3.473 2.194-3.473-2.194v-6.553h6.945v6.553zm-5.71-33.443c.925 8.32 7.514 12.07 11.993 12.07s11.067-3.75 11.993-12.07c1.333-.702 3.13-2.447 3.039-5.548-.018-.599-.071-2.419-1.406-2.924-1.313-.497-2.638.819-2.891 1.088a1.001 1.001 0 0 0 1.461 1.367c.175-.187.482-.424.686-.521.056.151.134.462.151 1.05.085 2.891-2.028 3.759-2.238 3.838l-3.894.853a64.576 64.576 0 0 0-13.801 0l-3.901-.854c-.295-.116-2.315-1.014-2.232-3.836.017-.588.095-.899.151-1.05.192.092.486.311.686.521a1.001 1.001 0 0 0 1.461-1.367c-.252-.269-1.572-1.589-2.891-1.088-1.335.504-1.389 2.325-1.406 2.924-.092 3.101 1.706 4.846 3.039 5.547zm2.11.596 1.998.438.589 5.339c-1.212-1.421-2.176-3.316-2.587-5.777zm17.177 5.776.589-5.339 1.998-.438c-.411 2.462-1.375 4.357-2.587 5.777zm-1.43-5.27-.795 7.198c-.002.017.005.032.004.048-1.835 1.225-3.776 1.722-5.074 1.722-1.296 0-3.232-.496-5.064-1.716l-.8-7.252a62.783 62.783 0 0 1 11.729 0zM29.438 42.722l-2.902 1.362-.255-4.656a1 1 0 0 0-1.997.109l.053.972c-3.428 1.238-6.537 3.485-8.878 6.368-.137-.803-.428-1.572-1.058-2.206a3.758 3.758 0 0 0-.905-.648v-7.55c.279.079.586.216.861.458.67.587 1.009 1.63 1.009 3.101V43.2a1 1 0 0 0 2 0v-3.167c0-2.072-.569-3.621-1.691-4.604a4.28 4.28 0 0 0-2.185-.996.996.996 0 0 0-.994-.971H1a1 1 0 0 0-1 1V37.5a1 1 0 0 0 1 1h3.09c.14 1.476.632 4.212 2.33 5.737-.201.135-.402.269-.568.436-1.194 1.201-1.185 2.886-1.177 4.372l.001 6.94c0 1.83.909 3.448 2.297 4.437-.578.87-1.148 1.603-1.145 1.603-3.024 3.302-2.698 9.679-2.683 9.949a1 1 0 0 0 .999.943h13.131c.53 0 .968-.414.999-.943.015-.27.341-6.648-2.662-9.925-.011-.013-.945-1.112-1.641-2.204a5.43 5.43 0 0 0 1.606-3.86l.001-5.84c2.064-3.39 5.257-6.083 8.874-7.535l.168 3.065a1.001 1.001 0 0 0 1.423.851l4.245-1.992a1 1 0 0 0-.85-1.812zM2 35.461h1.13V36.5H2v-1.039zm7.391 7.877c-3.29 0-3.357-5.784-3.357-5.842a.994.994 0 0 0-.904-.977V35.46h6.366v7.879l-1.361-.001h-.744zm-2.716 5.696c-.006-1.203-.013-2.34.595-2.951.49-.493 1.448-.743 2.845-.744h.024c1.397.002 2.355.251 2.844.744.406.409.536 1.054.577 1.795h-2.325a1 1 0 0 0 0 2h2.343v1.821h-2.343a1 1 0 0 0 0 2h2.342v1.688h-2.342a1 1 0 0 0 0 2h2.037a3.449 3.449 0 0 1-3.145 2.047 3.454 3.454 0 0 1-3.45-3.45l-.002-6.95zM5.133 70.917c.007-.393.031-.897.079-1.451h10.995c.048.553.071 1.058.078 1.451H5.133zm8.982-7.543c.974 1.063 1.509 2.608 1.808 4.091H5.501c.305-1.494.853-3.057 1.852-4.149a30.58 30.58 0 0 0 1.456-2.049 5.45 5.45 0 0 0 1.317.168c.78 0 1.52-.167 2.191-.464a24.825 24.825 0 0 0 1.798 2.403zm7.085-46.62V17.8a1 1 0 0 0 2 0v-1.37c2.995-1.182 7.331-2.308 11.602-2.308s8.607 1.126 11.602 2.308v1.37a1 1 0 0 0 2 0v-1.046a.996.996 0 0 0 .428-.815V5.24a1 1 0 0 0-.594-.914c-3.156-1.404-8.343-2.904-13.436-2.904-5.094 0-10.281 1.5-13.436 2.904a1.001 1.001 0 0 0-.594.914v10.698c0 .326.163.629.428.816zM22.772 5.9c2.999-1.241 7.556-2.477 12.03-2.477 4.474 0 9.03 1.236 12.03 2.477v8.546c-3.169-1.208-7.635-2.325-12.03-2.325-4.396 0-8.86 1.117-12.03 2.325V5.9zM73.34 32.94H48.11a1 1 0 0 0-1 1v3.523a1 1 0 0 0 1 1h2.335l9.721 6.916v9.426c-1.676.08-2.913.494-3.715 1.301-1.194 1.201-1.185 2.886-1.177 4.372l.001 6.94c0 3.005 2.445 5.45 5.45 5.45s5.45-2.445 5.45-5.45l.001-6.94c.008-1.486.017-3.171-1.177-4.372-.658-.662-1.595-1.068-2.833-1.239v-9.516c4.234-3.308 7.866-6.118 8.861-6.888h2.313a1 1 0 0 0 1-1V33.94a1 1 0 0 0-1-1zm-9.164 27.528-.001 6.951a3.454 3.454 0 0 1-3.45 3.45 3.45 3.45 0 0 1-3.145-2.047h2.037a1 1 0 0 0 0-2h-2.342v-1.688h2.342a1 1 0 0 0 0-2h-2.343v-1.821h2.343a1 1 0 0 0 0-2h-2.325c.041-.741.171-1.386.577-1.795.491-.494 1.453-.745 2.856-.745s2.365.25 2.856.745c.608.61.602 1.746.595 2.95zm8.164-24.005h-1.654a1 1 0 0 0-.611.208s-4.039 3.119-8.937 6.944l-9.794-6.968a1.003 1.003 0 0 0-.58-.185H49.11V34.94h23.23v1.523zm-27.317 5.999-.176 3.212a1.001 1.001 0 0 1-1.423.851l-4.245-1.992a1 1 0 1 1 .85-1.81l2.902 1.362.255-4.656a1 1 0 1 1 1.997.109l-.046.835c5.806 1.963 10.629 6.745 12.592 12.492a1.001 1.001 0 0 1-1.892.647c-1.708-4.997-5.822-9.178-10.814-11.05zm-9.221 4.785v24.44a1 1 0 0 1-2 0v-24.44a1 1 0 0 1 2 0zm12.923-17.198h24a1 1 0 0 1 0 2h-24a1 1 0 0 1 0-2z" style="" fill="#f89f31" data-original="#231f20" opacity="1" class=""></path></g></svg>