<svg xmlns="http://www.w3.org/2000/svg" version="1.1" xmlns:xlink="http://www.w3.org/1999/xlink" width="512" height="512" x="0" y="0" viewBox="0 0 512 512" style="enable-background:new 0 0 512 512" xml:space="preserve"><g><path d="M232 88a8 8 0 0 0 4.161 7.019l23.4 12.795 13.061 31.269a8 8 0 0 0 14.764 0l13.061-31.269 23.4-12.795a8 8 0 0 0 0-14.038l-23.4-12.795-13.065-31.269a8 8 0 0 0-14.764 0l-13.061 31.269-23.4 12.795A8 8 0 0 0 232 88zm37.7-7.123a8 8 0 0 0 3.543-3.936L280 60.756l6.761 16.185a8 8 0 0 0 3.543 3.936L303.328 88 290.3 95.123a8 8 0 0 0-3.543 3.936L280 115.244l-6.761-16.185a8 8 0 0 0-3.543-3.936L256.672 88z" fill="#f89f31" opacity="1" data-original="#000000"></path><path d="M456 128a39.97 39.97 0 0 0-28.8 67.715 23.972 23.972 0 0 0-8.853 30.626l-17.777 17.777a205.425 205.425 0 0 1-17.48 15.583A7.951 7.951 0 0 0 384 256V149.132a32 32 0 1 0-48.247-.285 116.593 116.593 0 0 1-159.506 0 32 32 0 1 0-48.247.285V256a7.951 7.951 0 0 0 .912 3.7 205.425 205.425 0 0 1-17.48-15.583l-17.777-17.776a23.972 23.972 0 0 0-8.855-30.626 40 40 0 1 0-57.6 0 23.985 23.985 0 0 0 4.8 42.909v210.724A23.938 23.938 0 0 0 16 471.9V488a8 8 0 0 0 8 8h64a8 8 0 0 0 8-8v-16.1a23.938 23.938 0 0 0-16-22.553V275.314l6.461 6.46a238.426 238.426 0 0 0 71.245 49.141l-53.269 154.477A8 8 0 0 0 112 496h288a8 8 0 0 0 7.563-10.608L354.3 330.914a238.424 238.424 0 0 0 71.244-49.14l6.461-6.46v174.034A23.938 23.938 0 0 0 416 471.9V488a8 8 0 0 0 8 8h64a8 8 0 0 0 8-8v-16.1a23.938 23.938 0 0 0-16-22.553V238.624a23.985 23.985 0 0 0 4.8-42.909A39.97 39.97 0 0 0 456 128zm0 16a24 24 0 1 1-24 24 24.028 24.028 0 0 1 24-24zm-8 304V240h16v208zm-96-289.013a32.1 32.1 0 0 0 16 0V248h-16zM360 112a16 16 0 1 1-16 16 16.019 16.019 0 0 1 16-16zm-216 46.987a32.1 32.1 0 0 0 16 0V248h-16zM152 112a16 16 0 1 1-16 16 16.019 16.019 0 0 1 16-16zm-16 152h32a8 8 0 0 0 8-8v-86.438a132.7 132.7 0 0 0 160 0V256a8 8 0 0 0 8 8h32a8 8 0 0 0 1.783-.206 203.374 203.374 0 0 1-38.832 22.623l-11.388-33.025A8 8 0 0 0 320 248H192a8 8 0 0 0-7.563 5.392l-11.388 33.025a203.427 203.427 0 0 1-38.832-22.623A8 8 0 0 0 136 264zm188.065 28.333a204.381 204.381 0 0 1-136.131 0L197.7 264h116.6zM48 448V240h16v208zm-8-240h32a8 8 0 0 1 0 16H40a8 8 0 0 1 0-16zm16-64a24 24 0 1 1-24 24 24.028 24.028 0 0 1 24-24zm24 336H32v-8.1a7.91 7.91 0 0 1 7.9-7.9h32.2a7.91 7.91 0 0 1 7.9 7.9zm43.221 0 49.315-143.013a239.513 239.513 0 0 0 166.928 0L388.779 480zm291-209.539a223.763 223.763 0 0 1-316.45 0L80 252.686v-14.062a24.147 24.147 0 0 0 2.341-.969l17.776 17.777a220.455 220.455 0 0 0 311.766 0l17.776-17.777a24.147 24.147 0 0 0 2.341.969v14.062zM480 480h-48v-8.1a7.91 7.91 0 0 1 7.9-7.9h32.2a7.91 7.91 0 0 1 7.9 7.9zm-8-256h-32a8 8 0 0 1 0-16h32a8 8 0 0 1 0 16zM192 32h16v16h-16zM224 32h16v16h-16zM208 16h16v16h-16zM208 48h16v16h-16z" fill="#f89f31" opacity="1" data-original="#000000"></path><path d="M208 120h16v16h-16zM384 32h16v16h-16zM120 40h16v16h-16z" fill="#f89f31" opacity="1" data-original="#000000"></path></g></svg>