<svg xmlns="http://www.w3.org/2000/svg" version="1.1" xmlns:xlink="http://www.w3.org/1999/xlink" width="512" height="512" x="0" y="0" viewBox="0 0 64 64" style="enable-background:new 0 0 512 512" xml:space="preserve" class=""><g><g data-name="Layer 2"><circle cx="13" cy="55" r="2" fill="#f89f31" opacity="1" data-original="#000000"></circle><path d="M60 45h-6.9L55 30.1a1 1 0 0 0-1-1.1h-2.3l1.8-12H57a.9.9 0 0 0 1-1v-4a.9.9 0 0 0-1-1h-2.7l.6-4.4a2.9 2.9 0 0 0-2.5-3.4A3 3 0 0 0 49 5.7l-.7 5.3h-5.6L42 5.7a3 3 0 0 0-3.4-2.5 2.9 2.9 0 0 0-2.5 3.4l.6 4.4H4a.9.9 0 0 0-1 1v4a.9.9 0 0 0 1 1h6v32.8A6.1 6.1 0 0 0 7 55a6 6 0 0 0 6 6 6 6 0 0 0 5.6-4h26.5a4.4 4.4 0 0 0 8.8 0H60a.9.9 0 0 0 1-1V46a.9.9 0 0 0-1-1Zm-8.9 0H39.9l-1.8-14h14.8ZM30 17h2v28h-2Zm4 0h3.5l1.8 12H37a1 1 0 0 0-1 1.1L37.9 45H34Zm11.3 12-1.7-12h3.8l-1.7 12Zm-3.7-12 1.7 12h-2l-1.7-12Zm8.1 12h-2l1.7-12h2ZM51 6a1.2 1.2 0 0 1 1.1-.9 1.1 1.1 0 0 1 .9 1.2l-.7 4.7h-2Zm-13 .3c0-.6.3-1.1.9-1.1A1 1 0 0 1 40 6l.7 5h-2ZM5 13h51v2H5Zm23 4v28H12V17ZM13 59a4 4 0 1 1 4-4 4 4 0 0 1-4 4Zm36.5 0a2.5 2.5 0 1 1 2.5-2.5 2.5 2.5 0 0 1-2.5 2.5Zm9.5-4h-5.3a4.4 4.4 0 0 0-8.4 0H19a6 6 0 0 0-7-5.9V47h47Z" fill="#f89f31" opacity="1" data-original="#000000"></path></g></g></svg>