<svg width="40" height="40" viewBox="0 0 40 40" fill="none" xmlns="http://www.w3.org/2000/svg">
<path d="M20 1.16992L5 6.62492V19.8199C5.0036 22.3952 5.61456 24.9334 6.78327 27.2283C7.95199 29.5231 9.64549 31.51 11.7262 33.0274L20 39.0449L28.2738 33.0274C30.3545 31.51 32.048 29.5231 33.2167 27.2283C34.3854 24.9334 34.9964 22.3952 35 19.8199V6.62492L20 1.16992ZM32.5 19.8199C32.4965 22.001 31.979 24.1505 30.9893 26.0941C29.9996 28.0376 28.5656 29.7205 26.8038 31.0062L20 35.9549L13.1962 31.0062C11.4344 29.7205 10.0004 28.0376 9.01073 26.0941C8.02103 24.1505 7.50345 22.001 7.5 19.8199V8.37492L20 3.82992L32.5 8.37492V19.8199Z" fill="#108042"/>
<path d="M14.6338 16.9287L12.8663 18.6962L18.4375 24.2675L27.1338 15.5712L25.3663 13.8037L18.4375 20.7325L14.6338 16.9287Z" fill="#108042"/>
</svg>
