<svg xmlns="http://www.w3.org/2000/svg" version="1.1" xmlns:xlink="http://www.w3.org/1999/xlink" width="512" height="512" x="0" y="0" viewBox="0 0 682.667 682.667" style="enable-background:new 0 0 512 512" xml:space="preserve" class=""><g><defs><clipPath id="a" clipPathUnits="userSpaceOnUse"><path d="M0 512h512V0H0Z" fill="#108042" opacity="1" data-original="#000000"></path></clipPath></defs><g clip-path="url(#a)" transform="matrix(1.33333 0 0 -1.33333 0 682.667)"><path d="m0 0 13.947-28.26a2.736 2.736 0 0 1 2.058-1.495l31.186-4.531c2.242-.326 3.137-3.08 1.515-4.661L26.139-60.945a2.731 2.731 0 0 1-.786-2.418l5.327-31.061c.383-2.232-1.96-3.935-3.965-2.881L-1.179-82.64a2.73 2.73 0 0 1-2.543 0l-27.894-14.665c-2.005-1.054-4.348.649-3.965 2.881l5.327 31.061a2.73 2.73 0 0 1-.785 2.418l-22.567 21.998c-1.622 1.581-.727 4.335 1.514 4.661l31.187 4.531c.89.13 1.659.689 2.057 1.495L-4.901 0C-3.898 2.031-1.002 2.031 0 0Z" style="stroke-width:15;stroke-linecap:round;stroke-linejoin:round;stroke-miterlimit:10;stroke-dasharray:none;stroke-opacity:1" transform="translate(114.97 453.995)" fill="none" stroke="#108042" stroke-width="15" stroke-linecap="round" stroke-linejoin="round" stroke-miterlimit="10" stroke-dasharray="none" stroke-opacity="" data-original="#000000" class="" opacity="1"></path><path d="m0 0 13.947-28.26a2.736 2.736 0 0 1 2.058-1.495l31.186-4.531c2.242-.326 3.137-3.08 1.515-4.661L26.139-60.945a2.731 2.731 0 0 1-.786-2.418l5.327-31.061c.383-2.232-1.96-3.935-3.965-2.881L-1.179-82.64a2.73 2.73 0 0 1-2.543 0l-27.894-14.665c-2.005-1.054-4.348.649-3.965 2.881l5.327 31.061a2.73 2.73 0 0 1-.785 2.418l-22.567 21.998c-1.622 1.581-.727 4.335 1.514 4.661l31.187 4.531c.89.13 1.659.689 2.057 1.495L-4.901 0C-3.898 2.031-1.002 2.031 0 0Z" style="stroke-width:15;stroke-linecap:round;stroke-linejoin:round;stroke-miterlimit:10;stroke-dasharray:none;stroke-opacity:1" transform="translate(258.45 453.995)" fill="none" stroke="#108042" stroke-width="15" stroke-linecap="round" stroke-linejoin="round" stroke-miterlimit="10" stroke-dasharray="none" stroke-opacity="" data-original="#000000" class="" opacity="1"></path><path d="m0 0 13.947-28.26a2.736 2.736 0 0 1 2.058-1.495l31.186-4.531c2.242-.326 3.137-3.08 1.515-4.661L26.139-60.945a2.731 2.731 0 0 1-.786-2.418l5.327-31.061c.383-2.232-1.96-3.935-3.965-2.881L-1.179-82.64a2.73 2.73 0 0 1-2.543 0l-27.894-14.665c-2.005-1.054-4.348.649-3.965 2.881l5.327 31.061a2.73 2.73 0 0 1-.785 2.418l-22.567 21.998c-1.622 1.581-.727 4.335 1.514 4.661l31.187 4.531c.89.13 1.659.689 2.057 1.495L-4.901 0C-3.898 2.031-1.002 2.031 0 0Z" style="stroke-width:15;stroke-linecap:round;stroke-linejoin:round;stroke-miterlimit:10;stroke-dasharray:none;stroke-opacity:1" transform="translate(401.93 453.995)" fill="none" stroke="#108042" stroke-width="15" stroke-linecap="round" stroke-linejoin="round" stroke-miterlimit="10" stroke-dasharray="none" stroke-opacity="" data-original="#000000" class="" opacity="1"></path><path d="M0 0h-45.716C-67.136 0-84.5-17.364-84.5-38.784v-119.543c0-21.42 17.364-38.784 38.784-38.784H-16L21-246.5l37 49.389h315.715c21.42 0 38.785 17.364 38.785 38.784v119.543C412.5-17.364 395.135 0 373.715 0H38" style="stroke-width:15;stroke-linecap:round;stroke-linejoin:round;stroke-miterlimit:10;stroke-dasharray:none;stroke-opacity:1" transform="translate(92 504.5)" fill="none" stroke="#108042" stroke-width="15" stroke-linecap="round" stroke-linejoin="round" stroke-miterlimit="10" stroke-dasharray="none" stroke-opacity="" data-original="#000000" class="" opacity="1"></path><path d="M0 0c0-20.987-17.013-38-38-38S-76-20.987-76 0s17.013 38 38 38S0 20.987 0 0Z" style="stroke-width:15;stroke-linecap:round;stroke-linejoin:round;stroke-miterlimit:10;stroke-dasharray:none;stroke-opacity:1" transform="translate(150.4 135.5)" fill="none" stroke="#108042" stroke-width="15" stroke-linecap="round" stroke-linejoin="round" stroke-miterlimit="10" stroke-dasharray="none" stroke-opacity="" data-original="#000000" class="" opacity="1"></path><path d="M0 0c3.965 34.339 33.139 61 68.541 61 36.087 0 65.703-27.702 68.743-63.001" style="stroke-width:15;stroke-linecap:round;stroke-linejoin:round;stroke-miterlimit:10;stroke-dasharray:none;stroke-opacity:1" transform="translate(43.858 36.5)" fill="none" stroke="#108042" stroke-width="15" stroke-linecap="round" stroke-linejoin="round" stroke-miterlimit="10" stroke-dasharray="none" stroke-opacity="" data-original="#000000" class="" opacity="1"></path><path d="M0 0c0-57.99-47.01-105-105-105S-210-57.99-210 0s47.01 105 105 105S0 57.99 0 0Z" style="stroke-width:15;stroke-linecap:round;stroke-linejoin:round;stroke-miterlimit:10;stroke-dasharray:none;stroke-opacity:1" transform="translate(217.5 112.5)" fill="none" stroke="#108042" stroke-width="15" stroke-linecap="round" stroke-linejoin="round" stroke-miterlimit="10" stroke-dasharray="none" stroke-opacity="" data-original="#000000" class="" opacity="1"></path><path d="M0 0h-206c-10.217 0-18.5 8.283-18.5 18.5v0c0 10.217 8.283 18.5 18.5 18.5H0c10.217 0 18.5-8.283 18.5-18.5v0C18.5 8.283 10.217 0 0 0Z" style="stroke-width:15;stroke-linecap:round;stroke-linejoin:round;stroke-miterlimit:10;stroke-dasharray:none;stroke-opacity:1" transform="translate(486 170)" fill="none" stroke="#108042" stroke-width="15" stroke-linecap="round" stroke-linejoin="round" stroke-miterlimit="10" stroke-dasharray="none" stroke-opacity="" data-original="#000000" class="" opacity="1"></path><path d="M0 0h12.5C22.717 0 31-8.283 31-18.5v0C31-28.717 22.717-37 12.5-37h-206c-10.217 0-18.5 8.283-18.5 18.5v0C-212-8.283-203.717 0-193.5 0H-38" style="stroke-width:15;stroke-linecap:round;stroke-linejoin:round;stroke-miterlimit:10;stroke-dasharray:none;stroke-opacity:1" transform="translate(474 131)" fill="none" stroke="#108042" stroke-width="15" stroke-linecap="round" stroke-linejoin="round" stroke-miterlimit="10" stroke-dasharray="none" stroke-opacity="" data-original="#000000" class="" opacity="1"></path><path d="M0 0h-25c-10.217 0-18.5 8.283-18.5 18.5v0C-43.5 28.717-35.217 37-25 37h206c10.217 0 18.5-8.283 18.5-18.5v0C199.5 8.283 191.217 0 181 0H37" style="stroke-width:15;stroke-linecap:round;stroke-linejoin:round;stroke-miterlimit:10;stroke-dasharray:none;stroke-opacity:1" transform="translate(306 18)" fill="none" stroke="#108042" stroke-width="15" stroke-linecap="round" stroke-linejoin="round" stroke-miterlimit="10" stroke-dasharray="none" stroke-opacity="" data-original="#000000" class="" opacity="1"></path></g></g></svg>