<svg width="715" height="715" viewBox="0 0 715 715" fill="none" xmlns="http://www.w3.org/2000/svg">
<path d="M714.918 401.122L668.882 314.126C602.586 349.221 548.727 370.558 507.879 377.89C555.48 345.349 598.716 289.328 638.081 209.335L549.797 165.754C522.95 220.209 497.832 255.139 475.102 277.383C488.032 217.655 471.561 133.46 400.901 0L313.935 46.0521C349.018 112.37 370.347 166.248 377.677 207.028C345.147 159.411 289.146 116.242 209.262 76.7808L165.697 165.095C220.133 191.952 255.051 217.079 277.287 239.816C217.58 226.882 133.414 243.359 0 313.961L46.0361 400.957C112.249 365.862 166.026 344.607 206.874 337.193C159.191 370.146 116.037 426.084 76.8366 505.665L165.12 549.246C191.803 495.038 217.004 460.025 239.816 437.617C226.886 497.345 243.357 581.54 314.017 715L400.983 668.948C365.9 602.712 344.653 548.916 337.241 508.054C370.183 555.754 426.101 598.923 505.655 638.137L549.221 549.823C495.032 523.131 460.031 498.004 437.631 475.184C449.737 477.82 462.749 479.221 477.078 479.221C533.409 479.221 608.598 457.307 715 400.957L714.918 401.122Z" fill="#1B2B3A" fill-opacity="0.1"/>
</svg>
