<svg width="685" height="685" viewBox="0 0 685 685" fill="none" xmlns="http://www.w3.org/2000/svg">
<path d="M684.921 384.291L640.817 300.945C577.303 334.568 525.703 355.01 486.569 362.034C532.173 330.858 573.595 277.189 611.308 200.551L526.729 158.799C501.008 210.97 476.944 244.434 455.168 265.744C467.555 208.523 451.775 127.86 384.08 0L300.763 44.1198C334.373 107.655 354.808 159.273 361.83 198.341C330.665 152.722 277.014 111.365 200.482 73.5592L158.745 158.168C210.897 183.898 244.35 207.97 265.652 229.754C208.451 217.363 127.816 233.148 0 300.788L44.1045 384.134C107.539 350.511 159.06 330.148 198.194 323.045C152.512 354.615 111.169 408.206 73.6126 484.449L158.192 526.201C183.755 474.267 207.899 440.724 229.754 419.256C217.366 476.477 233.146 557.14 300.841 685L384.159 640.88C350.548 577.424 330.192 525.885 323.091 486.738C354.65 532.436 408.223 573.793 484.439 611.362L526.177 526.753C474.261 501.181 440.729 477.109 419.269 455.246C430.867 457.772 443.333 459.113 457.061 459.113C511.028 459.113 583.063 438.119 685 384.134L684.921 384.291Z" fill="#ffffff"/>
</svg>
