<svg width="40" height="40" viewBox="0 0 40 40" fill="none" xmlns="http://www.w3.org/2000/svg">
<g clip-path="url(#clip0_4_1007)">
<path d="M4.45656 27.5341L0.187028 31.7283C0.0985087 31.8152 0.0378766 31.9266 0.0128555 32.0481C-0.0121656 32.1696 -0.00044312 32.2959 0.0465297 32.4107C0.0935024 32.5256 0.173599 32.6238 0.276617 32.693C0.379635 32.7622 0.500911 32.7991 0.624997 32.7991H12.5267C13.3808 33.9825 14.5037 34.9461 15.8029 35.6106C17.1022 36.2752 18.5407 36.6218 20 36.6218C21.4594 36.6218 22.8979 36.2752 24.1971 35.6106C25.4964 34.9461 26.6193 33.9825 27.4734 32.7991H39.375C39.4991 32.7991 39.6204 32.7622 39.7234 32.693C39.8264 32.6238 39.9065 32.5256 39.9535 32.4107C40.0004 32.2959 40.0122 32.1696 39.9871 32.0481C39.9621 31.9266 39.9015 31.8152 39.813 31.7283L35.5434 27.5341L39.827 23.049C39.9115 22.9605 39.9682 22.8491 39.99 22.7286C40.0118 22.6082 39.9978 22.484 39.9497 22.3715C39.9015 22.2589 39.8214 22.163 39.7193 22.0956C39.6171 22.0282 39.4974 21.9922 39.375 21.9922H38.7407C38.8789 20.7795 38.5933 19.5564 37.9323 18.5303C37.8541 18.4096 37.7367 18.3196 37.5999 18.2754C36.4515 17.8904 35.3546 17.366 34.3338 16.7141C34.2627 16.6696 34.1833 16.6399 34.1004 16.6268C34.0175 16.6137 33.9328 16.6174 33.8514 16.6376C33.7699 16.6579 33.6934 16.6944 33.6264 16.7449C33.5594 16.7955 33.5032 16.8589 33.4612 16.9316L32.3566 18.8448L31.2518 16.9316C31.2098 16.8589 31.1537 16.7955 31.0866 16.7449C31.0196 16.6944 30.9431 16.6579 30.8617 16.6376C30.7802 16.6174 30.6956 16.6137 30.6127 16.6268C30.5298 16.6399 30.4504 16.6696 30.3792 16.7141C29.5879 17.2142 28.7535 17.6427 27.8859 17.9944C27.7133 17.0401 27.4466 16.173 27.0721 15.5951C26.9939 15.4745 26.8766 15.3845 26.7398 15.3403C25.3559 14.8931 23.9176 14.2058 22.4648 13.2973C22.3937 13.2528 22.3143 13.2231 22.2314 13.21C22.1485 13.1968 22.0638 13.2005 21.9824 13.2208C21.901 13.2411 21.8245 13.2776 21.7574 13.3281C21.6904 13.3786 21.6342 13.4421 21.5923 13.5147L20 16.2726L18.4077 13.5147C18.3658 13.4421 18.3096 13.3786 18.2426 13.3281C18.1755 13.2776 18.099 13.2411 18.0176 13.2208C17.9362 13.2005 17.8515 13.1968 17.7686 13.21C17.6857 13.2231 17.6063 13.2528 17.5352 13.2973C16.0824 14.2058 14.6445 14.8931 13.2602 15.3403C13.1234 15.3845 13.006 15.4745 12.9279 15.5951C12.5563 16.1685 12.2907 17.0382 12.118 17.9962C11.2491 17.6441 10.4133 17.215 9.62078 16.7141C9.54961 16.6696 9.47022 16.6399 9.38733 16.6268C9.30444 16.6137 9.21975 16.6174 9.13832 16.6376C9.05689 16.6579 8.98038 16.6944 8.91335 16.7449C8.84632 16.7955 8.79016 16.8589 8.7482 16.9316L7.64351 18.8448L6.53906 16.9316C6.4971 16.8589 6.44093 16.7955 6.37391 16.7449C6.30688 16.6944 6.23037 16.6579 6.14894 16.6376C6.06751 16.6174 5.98282 16.6137 5.89993 16.6268C5.81704 16.6399 5.73765 16.6696 5.66648 16.7141C4.64566 17.366 3.54878 17.8904 2.40039 18.2754C2.26358 18.3196 2.14621 18.4096 2.06804 18.5303C1.40128 19.5539 1.11488 20.7791 1.25875 21.9922H0.624997C0.502599 21.9922 0.382894 22.0282 0.280735 22.0956C0.178577 22.163 0.098461 22.2589 0.0503296 22.3715C0.00219807 22.484 -0.0118305 22.6082 0.00998441 22.7286C0.0317994 22.8491 0.0884976 22.9605 0.173044 23.049L4.45656 27.5341ZM2.15312 31.5491L5.77218 27.994C5.88936 27.8789 5.95652 27.7223 5.95914 27.558C5.96175 27.3938 5.89962 27.2352 5.78617 27.1164L2.08593 23.2422H11.7634C11.1129 24.5301 10.774 25.9528 10.774 27.3957C10.774 28.8385 11.1129 30.2612 11.7634 31.5491H2.15312ZM20 35.3718C18.4225 35.3718 16.8804 34.904 15.5687 34.0276C14.2571 33.1511 13.2347 31.9054 12.631 30.448C12.0274 28.9906 11.8694 27.3868 12.1772 25.8396C12.4849 24.2924 13.2446 22.8712 14.36 21.7557C15.4755 20.6403 16.8967 19.8806 18.4439 19.5728C19.9911 19.2651 21.5949 19.423 23.0523 20.0267C24.5098 20.6304 25.7555 21.6527 26.6319 22.9644C27.5083 24.2761 27.9761 25.8182 27.9761 27.3957C27.9737 29.5103 27.1326 31.5377 25.6373 33.033C24.142 34.5283 22.1147 35.3694 20 35.3718ZM34.2139 27.1164C34.1004 27.2351 34.0383 27.3938 34.0409 27.558C34.0435 27.7223 34.1106 27.8789 34.2278 27.994L37.8469 31.5491H28.2367C28.8872 30.2612 29.2261 28.8385 29.2261 27.3957C29.2261 25.9528 28.8872 24.5301 28.2367 23.2422H37.9141L34.2139 27.1164ZM30.4873 18.108L31.815 20.4072C31.8699 20.5023 31.9488 20.5811 32.0438 20.636C32.1388 20.6908 32.2465 20.7197 32.3562 20.7197C32.466 20.7197 32.5737 20.6908 32.6687 20.636C32.7637 20.5811 32.8426 20.5023 32.8975 20.4072L34.2251 18.108C35.1042 18.6242 36.0315 19.0538 36.9937 19.3907C37.4437 20.1785 37.615 21.0951 37.4797 21.9922H28.0926C28.1584 21.0852 28.1471 20.1742 28.0587 19.269C28.8993 18.9505 29.7118 18.5621 30.4877 18.108H30.4873ZM13.873 16.4541C15.1872 15.9977 16.4511 15.4077 17.6448 14.6933L19.4587 17.8351C19.5136 17.9301 19.5925 18.009 19.6875 18.0638C19.7825 18.1187 19.8903 18.1475 20 18.1475C20.1097 18.1475 20.2175 18.1187 20.3125 18.0638C20.4075 18.009 20.4864 17.9301 20.5412 17.8351L22.3552 14.6933C23.5488 15.4076 24.8127 15.9976 26.1268 16.454C26.653 17.464 26.9267 19.5914 26.8823 21.2587C26.0179 20.2872 24.9577 19.5097 23.7714 18.9774C22.585 18.445 21.2994 18.1699 19.9991 18.1701C18.6987 18.1702 17.4132 18.4457 16.227 18.9783C15.0407 19.5109 13.9807 20.2887 13.1166 21.2604C13.0687 19.586 13.3423 17.4688 13.873 16.4541ZM3.00609 19.3907C3.96828 19.0536 4.89547 18.6239 5.77461 18.1076L7.10226 20.4069C7.15712 20.5019 7.23602 20.5808 7.33103 20.6357C7.42603 20.6905 7.53381 20.7194 7.64351 20.7194C7.75322 20.7194 7.86099 20.6905 7.956 20.6357C8.05101 20.5808 8.1299 20.5019 8.18476 20.4069L9.51234 18.1076C10.2893 18.5625 11.1032 18.9513 11.9453 19.27C11.8559 20.1747 11.8432 21.0854 11.9072 21.9922H2.51937C2.3795 21.0949 2.55127 20.1768 3.00609 19.3907ZM20.032 13.1611C20.0543 13.1616 20.0765 13.1619 20.0987 13.1619C21.1065 13.1619 22.0387 12.6384 22.7302 11.6823C23.4733 10.6551 23.9122 9.20131 24.0349 7.36131C24.0363 7.341 24.0366 7.32066 24.0359 7.30029C24.0072 6.2498 23.5695 5.25202 22.816 4.51948C22.0625 3.78694 21.0528 3.37752 20.0019 3.37842H19.9983C18.9474 3.37752 17.9377 3.78694 17.1842 4.51948C16.4307 5.25202 15.9929 6.2498 15.9642 7.30029V7.33279C15.9987 8.98194 16.4271 10.4219 17.2028 11.4969C17.9484 12.5306 18.9796 13.1371 20.032 13.1611ZM20 4.62834C20.7209 4.62821 21.4139 4.90747 21.9333 5.40748C22.4527 5.90748 22.7581 6.58931 22.7854 7.30975C22.551 10.7104 21.1994 11.9119 20.0952 11.9119H20.0605C18.7109 11.8807 17.2788 10.1563 17.2141 7.32342C17.2379 6.60049 17.5419 5.91515 18.0618 5.41223C18.5816 4.90931 19.2767 4.62821 20 4.62834ZM25.7913 26.0358C25.7564 25.9284 25.6931 25.8325 25.6081 25.7582C25.5231 25.6839 25.4195 25.634 25.3084 25.6139L22.0968 25.0313L20.5504 22.1568C20.4969 22.0574 20.4175 21.9743 20.3206 21.9164C20.2237 21.8585 20.1129 21.8279 20 21.8279C19.8871 21.8279 19.7763 21.8585 19.6794 21.9164C19.5825 21.9743 19.5031 22.0574 19.4496 22.1568L17.9032 25.0313L14.6916 25.6137C14.5805 25.6339 14.477 25.6837 14.3919 25.758C14.3069 25.8323 14.2436 25.9282 14.2087 26.0355C14.1739 26.1429 14.1687 26.2577 14.1938 26.3678C14.2189 26.4778 14.2734 26.579 14.3514 26.6606L16.6073 29.0196L16.1687 32.254C16.1536 32.3658 16.169 32.4797 16.2134 32.5836C16.2577 32.6874 16.3294 32.7772 16.4207 32.8436C16.5121 32.91 16.6197 32.9503 16.7321 32.9604C16.8446 32.9705 16.9577 32.95 17.0594 32.901L20 31.4844L22.9407 32.9011C23.0424 32.9501 23.1555 32.9706 23.2679 32.9605C23.3804 32.9504 23.488 32.91 23.5793 32.8437C23.6707 32.7773 23.7423 32.6875 23.7867 32.5836C23.8311 32.4798 23.8465 32.3659 23.8313 32.254L23.3927 29.0197L25.6484 26.6609C25.7265 26.5793 25.781 26.4781 25.8062 26.3681C25.8313 26.258 25.8262 26.1432 25.7913 26.0358ZM22.2812 28.3735C22.2163 28.4414 22.1675 28.523 22.1385 28.6124C22.1095 28.7017 22.101 28.7964 22.1136 28.8895L22.4366 31.2711L20.2713 30.228C20.1867 30.1872 20.094 30.1661 20.0001 30.1661C19.9062 30.1661 19.8134 30.1872 19.7288 30.228L17.5636 31.2711L17.8866 28.8895C17.8992 28.7964 17.8907 28.7017 17.8616 28.6124C17.8326 28.523 17.7838 28.4414 17.7189 28.3735L16.0578 26.6366L18.4227 26.2078C18.5151 26.191 18.6025 26.1536 18.6785 26.0984C18.7544 26.0432 18.817 25.9716 18.8615 25.8889L20 23.7724L21.1386 25.8889C21.1831 25.9716 21.2456 26.0432 21.3216 26.0984C21.3976 26.1536 21.485 26.191 21.5774 26.2078L23.9423 26.6366L22.2812 28.3735ZM32.378 16.3645C32.3949 16.3645 32.4118 16.3651 32.4288 16.3651C33.7673 16.3651 35.3847 15.1637 35.6117 11.7569C35.6131 11.7366 35.6134 11.7163 35.6128 11.696C35.5897 10.8485 35.2366 10.0435 34.6287 9.45251C34.0209 8.8615 33.2062 8.53119 32.3584 8.53194H32.3548C31.5069 8.53117 30.6923 8.86147 30.0844 9.45247C29.4765 10.0435 29.1234 10.8485 29.1002 11.696V11.7285C29.1275 13.0297 29.4674 14.1685 30.0828 15.0215C30.6844 15.8555 31.521 16.345 32.378 16.3645ZM32.3566 9.78194C32.8745 9.78201 33.3723 9.98221 33.7461 10.3407C34.1199 10.6992 34.3407 11.1883 34.3623 11.7058C34.1959 14.0875 33.2647 15.1343 32.4065 15.1148C31.4328 15.0926 30.3994 13.8169 30.3502 11.7192C30.3684 11.1993 30.5878 10.7067 30.9621 10.3453C31.3364 9.98397 31.8363 9.78198 32.3566 9.78194ZM7.66492 16.3645C7.68187 16.3645 7.69875 16.3651 7.71586 16.3651C9.05429 16.3651 10.6717 15.1637 10.8987 11.7569C10.9001 11.7366 10.9003 11.7163 10.8998 11.696C10.8767 10.8485 10.5235 10.0435 9.91565 9.45248C9.30776 8.86147 8.49314 8.53117 7.64531 8.53194H7.64164C6.79381 8.53117 5.97918 8.86147 5.37129 9.45248C4.76341 10.0435 4.4103 10.8485 4.38718 11.696V11.7285C4.41445 13.0297 4.75437 14.1685 5.36968 15.0215C5.97132 15.8555 6.80797 16.345 7.66492 16.3645ZM7.64351 9.78194C8.16143 9.78201 8.65929 9.98221 9.03306 10.3407C9.40684 10.6992 9.62763 11.1883 9.64929 11.7058C9.48437 14.0658 8.56586 15.1151 7.71687 15.1151H7.69343C6.71968 15.093 5.6864 13.8172 5.63703 11.7195C5.65523 11.1995 5.87459 10.7069 6.24889 10.3454C6.62319 9.98398 7.12319 9.78196 7.64351 9.78194Z" fill="#108042"/>
</g>
<defs>
<clipPath id="clip0_4_1007">
<rect width="40" height="40" fill="white"/>
</clipPath>
</defs>
</svg>
